<svg xmlns="http://www.w3.org/2000/svg" xmlns:xlink="http://www.w3.org/1999/xlink" width="360" height="360" viewBox="0 0 360 360">
    <defs>
        <path id="a" d="M0 0h48.418v86.237H0z"/>
    </defs>
    <g fill="none" fill-rule="evenodd">
        <path fill-rule="nonzero" d="M0 0h360v360H0z" opacity=".703"/>
        <path fill="#EEE" fill-rule="nonzero" d="M67.4 243.4c-10.6-8.7-22.9-14.9-34.2-22.7-11.3-7.8-21.9-17.8-26.5-31-9.7-27.8 10.4-57.2 8.3-86.6-1-13.8-6.8-27-7.5-40.8C6.4 40.5 19.4 19.3 38 9.5c18.7-9.8 42-8.4 60.7 1.9 13.6 7.5 25.9 19.8 41.2 20.6 14.5.8 27.1-9 39.3-17C191.4 7 207.1.5 220 7.7c8.2 4.6 13.2 13.9 15.1 23.4 1.9 9.4 1.3 19.2 1 28.8-1 34.1 4.7 72 29.8 94.5 25.3 22.6 68.9 24.7 84.4 57.7 12.1 25.8 4.6 61.3-23.4 70.7-16.1 5.4-33.5.4-50.4-1.7-20.5-2.5-36.2 1.9-47.9 19.2-11.1 16.4-23 35.5-39.4 46.7-15.4 10.5-35.7 13-53.3 6.6-20.1-7.4-31.9-25-35-46.3-3.5-25-13.9-47.8-33.5-63.9"/>
        <path fill="#FFF" fill-rule="nonzero" d="M93 80.7c-6.5 1.4-12.4 4.9-17 9.5-5.3 5.4-6.8 12.4-9.3 19.4l-15.9 6.3c-7.2 2.4-11.6 9.1-15.1 15.8-3.5 6.7-5.1 14.2-6.3 21.6-1.1 7.2-1.9 12.9-1.4 20.1.6 8.5.3 17.1-.3 25.6-1.2 16.9-3.9 33.7-4.4 50.7-.2 7.7.5 16.5 6.5 21.5 4 3.3 9.5 4.1 14.7 4.3 5.2.2 10.6-.1 15.5 1.6l104 5.3h71.8c5 0 10.9-.8 15.1-3.5 1.1-.7 2.2-1.5 3.5-1.3 1.2.1 2.2 1.1 3.2 1.9 2.8 2.3 6.5 3.5 10.1 3.3l37.5-.3c9.5 0 14.2-12.2 13.9-19.9l.3-23.3c2 0 3.8-2.4 3.4-4.3-.4-1.9-2.8-3-4.7-2.6 2.3-21.1-3.2-43.4-15.7-60.6-2.9-4-6.4-8-11.2-9.4-6-1.9-12.6.8-17.3 4.9-4.7 4.1-8 9.6-11.6 14.8-8 11.6-17.8 21.9-29 30.4-35.1-20.6-79.2-17.2-116.8-32.7-4.7-2-9.4-4.3-13.1-7.8-3.7-3.6-6.3-8.5-6-13.6.6-8.6 8.6-14.5 13.4-21.7 6.1-9 7-21 3.5-31.3C111.1 94.8 101.9 87 93 80.7z"/>
        <path fill="#FFF" fill-rule="nonzero" d="M166.5 194c-.7 5.3 2.6 10.6 7.1 13.6 4.4 3 9.9 4.2 15.2 5.1 13.3 2.3 26.8 3 40.3 2.7 1.1 0 2.5-.3 2.8-1.4.1-.7-.3-1.4-.7-1.9-3.8-4.6-9.6-7-14.7-10.2-2-1.3-3.4-3.2-5.3-4.4-1.8-1.2-3-2.5-4.2-4.3-1.4-2.3-3.5-3.8-5.7-5.5-2.3-1.8-4.9-3.1-7.2-4.8-2.6-1.8-4.9-4.2-7.5-6.1-3.2-2.3-5.7-6.2-8.3-9.1-4.4-4.9-8.7-9.8-13.1-14.7l-2.7-16.9-5.6-19.3c-2.5-6.7-5.3-14.9-7.8-21.5-.9-2.6-1.9-5.2-3.8-7.1-2.4-2.5-5.8-3.5-9.1-4.4-3.3-.9-6.5-1.9-9.8-2.8-1.8-.5-4.6-.6-5-2.5-.3-1.4-.2-4.5 1.2-5.8 6.7-3.4 7.8-10.9 9.5-18.2 1.1-4.6 2.2-9.7.2-14-2.3-5.1-8-7.5-13.2-9.4-2.5-.9-5-1.8-7.6-1.9-2.6-.1-7.8 2.5-8.7 4.9-.1.3-.2.7-.3 1l-8 45.5c6.3 18.5 11.9 38.8 7.1 57.7-2.2 8.8-6.9 17.6-5.2 26.6 1.1 5.8 4.8 10.8 9.4 14.4 4.6 3.7 10 6.1 15.5 8.2 18.9 7.2 39.7 10.8 59.6 6.8 2.8-.6 5.7-1.3 7.9-3.2 2.2-1.8 3.3-4.8 2.3-7.6l-3.7-5.6-.3-.3M246.8 213.7c-7.4-4.3-14.1-10-18.8-17.1-4.7-7.1-7.3-15.9-6.2-24.4 1.1-8.5 6.1-16.6 13.7-20.6 8-4.2 17.6-3.5 26.6-2.7 4.5-1.7 9.6-4 11.1-8.6.7-2.1.5-4.3.9-6.4.4-2.1 1.5-4.4 3.6-4.9 2.5-.6 4.9 1.5 6.1 3.8 1.2 2.3 1.7 5 3.4 7 2.8 3.2 7.8 3.6 10.8 6.7 2.3 2.4 3 5.9 3 9.2.1 3.3-.4 6.7.3 9.9 1.2 5.7 5.8 10.8 5.2 16.6-.3 3-1.9 5.7-3.4 8.3-4.1 7.7-6.6 16.2-7.4 24.8-.3 3.7-.5 7.7-2.9 10.4-2.1 2.4-5.5 3.1-8.6 3.6-10.9 1.6-22.2.8-32.8-2.2"/>
        <path fill="#FFF" fill-rule="nonzero" d="M308.1 180.5c-.4-4.3-.7-8.8.2-13 1-4.2 3.4-8.4 7.4-10.2 2.9-1.3 6.2-1.4 9-2.9 2.4-1.3 4.1-3.6 6.3-5.2 2.2-1.7 6.3-3 8.6-.7 1.2 1.3 1.8 4 2.5 5.6.9 2.1.1 2.4 1 4.5 1.1 2.6 4.1 7.3 3.6 10.1-.4 2.3-2.1 5.1-3.9 6.5-1.9 1.5-3.9 1.9-4.5 4.7-.4 2 0 4 .3 6 1 5.4 2.5 10 .5 15.1s-5.8 7.7-10.3 10.9c-3.6 2.6-7.8 6.4-12.2 7.1-7.5 1.3-16.1-2.1-19.3-9.1-2.5-5.3-1.5-11.7 1-16.9 2.6-5.1 5.8-8.2 9.8-12.5z"/>
        <path fill="#EEE" fill-rule="nonzero" d="M239.5 207.1c-1-1-2.2-1.9-3.3-2.8-3.4-2.7-7.2-5.8-7.7-10.1-.6-4.5 2.5-8.7 2.2-13.2-.1-1.7-.8-3.4-1.3-5.1-1.4-4.1-2.3-8.5-1.9-12.9.2-2.5 1.1-5.1 3.2-6.6 1.8-1.2 4.2-1.3 6.2-.6 2 .7 3.8 2 5.4 3.5 1.6 1.4 3.1 2.9 4.9 3.9 1.8 1 3.7 1.4 5.7 1.9 3.8.9 7.7 1.8 11.5 2.7.6.1 1.3.2 1.7-.2.2-.3.3-.6.3-1 .6-5.9-1-12.2 1.5-17.5.7-1.5 1.8-3 1.5-4.7-.2-1-.8-2-1.5-2.7-10.4-9.1-24.7-12.9-29.4-50.2-.7-5.7-28 50.1-28.7 55.8-.5 4 .8 8.1 1.3 12.1s.1 8.6-2.9 11.4c-2.7 2.4-6.7 2.7-9.9 4.4-2.2 1.2-5.8 4.1-4.3 6.7 1.4 2.3 4.6 3.3 6.6 4.7 3.6 2.4 5.8 6.4 9.1 9.2 2.1 1.7 4.5 3 6.8 4.4 5.4 3.1 10.6 6.7 15.4 10.7 2.6 2.1 6.4 6.4 10.1 6.2 3.9-.1 1-5.5-.3-7.4-.6-.9-1.4-1.7-2.2-2.6z"/>
        <path fill="#EEE" fill-rule="nonzero" d="M267.4 171.8c-.8-1.1-1.8-2.2-1.4-3.5.2-.5.5-.9.8-1.3 1.3-1.8 1.2-4.2.7-6.3-.5-2.1-1.4-4.2-1.5-6.4-.1-3.4 1.9-6.7 4.9-8.2-2.7 4.2-2.6 9.7-1 14.4 1.7 4.7 4.8 8.7 8 12.5 2 2.3 4.2 4.7 7.1 5.4 3.4.9 7.1-.7 9.6-3.2s4.1-5.7 5.7-8.9c1.3 1.7 2.7 3.3 4 5 1.3 1.6 2.7 3.3 3.1 5.4 1.1 4.7-1.3 9.8-4.6 13.3-4.5 4.8-10.3 9.3-11.1 15.9-.1.7-.1 1.4-.5 2-.4.6-1.2.9-1.8.5-.3-.2-.5-.6-.6-1-1.1-3.1-3.7-4.9-6.5-6.7-3.9-2.5-8.5-4.4-11.1-8.2-4.1-5.9.4-14.9-3.8-20.7z"/>
        <path fill="#EEE" fill-rule="nonzero" d="M290 232h27.5c.8-9.5 6.5-18.5 14.8-23.3-3.6 1.8-7.2 3.6-11.2 4.2-4 .6-8.3-.5-10.9-3.5-.6-.7-1.1-1.6-1.9-2.1-.7-.4-1.5-.5-2.2-.9-1.6-.8-2.5-2.5-2.6-4.3-.2-1.7.3-3.5.7-5.2 1.4-5.6 2.9-11.2 4.3-16.8-1.9 4.2-3.7 7.3-7 10.6-3.2 3.2-6.9 6.3-8.4 10.7-.7 1.9-.9 4-2.2 5.6-.5.6-1 1.1-1.4 1.8-.4.8-.4 1.7-.4 2.5-.2 6.5-.3 13-.5 19.5M263.9 232.8c-.9.1-1.8.3-2.2 1.1-.3.7.1 1.6.7 2.1s1.4.7 2.2.8c2.6.6 5.3 1.1 7.9 1.7-8 1-16.1 1-24 0-.6-.1-1.2-.2-1.8-.4-1.1-.6-1.7-2-1.3-3.2.4-1.2 1.7-2 2.9-1.8.6.1 1.2.3 1.6-.1"/>
        <path fill="#EEE" fill-rule="nonzero" d="M318.7 238.2l-68.8 1.1c-.7 1.9-.6 4-.5 6 .2 6.7.6 13.3 1 20 .9 15.1 13.8 18.6 26.8 16.1-4.2-2.7-6.4-7-7.8-11.6-2-6.5-12.4-27.9 2.5-27.9h43.3c2.7 0 4.8-.6 3.5-3.7z"/>
        <path stroke="#514E4F" stroke-linecap="round" stroke-linejoin="round" d="M247.9 232.8h72c1.7 0 3.1 1.4 3.1 3.1 0 1.7-1.4 3.1-3.1 3.1h-72c-1.7 0-3.1-1.4-3.1-3.1 0-1.7 1.4-3.1 3.1-3.1z"/>
        <path stroke="#514E4F" stroke-linecap="round" stroke-linejoin="round" d="M319.1 261.1v4.5c0 9.3-7.5 16.8-16.8 16.8h-36.2c-9.3 0-16.8-7.5-16.8-16.8v-25.4-1.3M319.1 238.9V253.6"/>
        <path fill="#9CA9EA" fill-rule="nonzero" d="M248.2 264.6c-.1.2-.2.3-.2.5-.1.1.4.3.5.1.1-.2.2-.3.2-.5 0-.1-.4-.3-.5-.1zM241.1 255.1h.2c.2 0-.2-.2-.3-.2h-.2c-.2 0 .2.2.3.2z"/>
        <path stroke="#514E4F" stroke-linecap="round" stroke-linejoin="round" d="M317.6 232.3c.4-5.8 2.7-11.4 6.5-15.7 3.2-3.6 7.2-6.2 10.7-9.6 3.4-3.3 6.3-7.8 6-12.6-.4-5.1-4.2-10.1-2.2-14.7 1.3-2.9 4.4-4.4 6.3-6.8 2-2.6 2.6-6.3 1.4-9.4-1.1-2.8-4.2-3.7-4.3-6.9 0-1.8.4-3.5 0-5.2-.7-2.8-3.8-4.4-6.7-4.2-2.9.2-5.4 2-7.3 4.1-1.5 1.6-2.7 3.5-4.6 4.6-2.8 1.6-6.5 1.2-9.4 2.7-2.7 1.4-4.3 4.4-5 7.5-.6 3-.5 6.1-.6 9.2-.1 4.7-1 9.6-4.1 13.1-3 3.4-7.7 5.1-9.8 9-1.4 2.7-1.4 6.2-2 9.3"/>
        <path stroke="#514E4F" stroke-linecap="round" stroke-linejoin="round" d="M331.3 159.2c-3.5 9.8-8.7 18.8-13.6 28s-9.3 18.8-10.8 29.1M241.7 173.4c3.4 13.1 12.4 23.7 19.9 35 1.7 2.5 3.3 5.2 4.5 8.1M304.3 171.5c-2.5-3.2-3.9-7.3-4-11.3 0-4.2 1.3-8.9-1.1-12.3-3.1-4.4-10.4-4.1-13.1-8.7-1-1.7-1.1-3.7-1.7-5.5-.6-1.9-1.8-3.6-3.6-4.5-1.8-.9-4.1-.7-5.5.6-2.2 2.1-1.3 5.7-1.8 8.7-.8 5.8-6.8 9.9-7.3 15.7-.2 2.5.6 4.9 1 7.4s.4 5.2-1.2 7.1"/>
        <path fill="#EEE" fill-rule="nonzero" d="M240.2 158.7c-1.1-1.4-3.5-.3-4.9.8-1.4 1-2.1 2.8-2.5 4.5-.9 3.9-.5 8 1.1 11.7 1.8 4.1 5.1 7.5 5.7 11.9.6 3.7-.8 7.5.3 11.1 1.4 4.7 6.5 7.2 9.9 10.7 2.9 3 4.8 7.1 8.4 9.4 2 1.3 4.6 1.4 6.9 1.8 2.8.5 5.7 1 8.5 1.6 2.2.4 4.4.8 6.7.5 2-.2 3.8-1 5.6-1.9 1.3-.7 2.8-2.1 3.8-.7.7 1 1.3 11.9 1.9 11.9h-16.2l-26.6.3c-3.6-1.8-4.2-7.1-4.3-11.2-.1-4.3-1-8.8-3.8-12-2.3-2.6-5.6-4.1-8-6.5-3.5-3.5-4.9-8.9-3.6-13.7.6-2.1 1.6-4 1.9-6.2.6-3.7-1.1-7.4-2.6-10.9s-2.6-7.5-1-11c2-4 9.2-4.9 12.8-2.1z"/>
        <path stroke="#514E4F" stroke-linecap="round" stroke-linejoin="round" d="M291.9 232.1c-4.6-7.6.7-19.1-4.4-26.7-4.1-6.2-13.6-7.3-17-14-3.3-6.4.8-15.4-3.8-20.9-4.3-5.1-12.6-3.3-18.5-6.2-2.7-1.3-4.8-3.6-7.3-5.4-2.4-1.8-5.5-3.2-8.4-2.3-4.9 1.4-6 8.1-4.8 13 1.2 5 3.9 9.9 3 14.9-.5 2.9-2.1 5.5-2.3 8.4-.3 5.2 4.1 9.3 8.3 12.3 2.6 1.9 5.5 3.8 6.6 6.8.8 2.1.6 4.3.5 6.5-.1 2.9-.1 5.9.9 8.6.7 2 2.1 3.8 4 4.8M115.9 62.4l8.7 1c.2 0 .3.3.1.5l-.9 1c-2.1 2.2-6 1.8-7.5-.8l-.7-1.2c0-.2.1-.5.3-.5z"/>
        <path fill="#5067DA" fill-rule="nonzero" d="M182.9 174.7h-62.5l6.7-38.4h63.8z"/>
        <path fill="#304BD3" fill-rule="nonzero" d="M124.8 150.3c.1 8.9 4.7 15.2 12.9 18.5 8.2 3.3 16.5 4.6 25.2 5.8-1.8.3-3.6.2-5.4-.4l-36.9.1"/>
        <path fill="#EEE" fill-rule="nonzero" d="M104.1 66c1.5 5.2 5.6 10.3 10.7 12.3 1.2.5 2.4.7 3.7.6 1-.1 2.6-.7 2.9-1.8.3-1-.4-3.2-.7-4.2l-6.6-.6c-1.5-.7-2.6-1.7-4.1-2.4-.6-.3-1.1-.5-1.7-.8-1.5-.7-2.8-2.1-4.2-3.1zM104.1 89.7h.6c.2 0 .4-.1.5-.3-.9-.9-2.8-1.3-3.6-2.2-2.4-2.6-5.4-5.8-7-7.5-.1-.1-.3-.3-.5-.4-.2-.1-.5 0-.7.1-4.2 1.4-8.3 3.1-12.3 5.1H81c-.3 0-.7.4-1 .5 0 2-4.3 4.9-5.5 6.5.7-.3 1.4-.5 2.1-.8 3.5-1.3 7.1-2.6 10.8-3.1 5.9-.5 11 2.1 16.7 2.1zM85.4 112.9c.5 4.5 1 9.1 1.5 13.6.3 2.8.6 5.6 1.3 8.4 1.8 8 6.2 15.2 10.6 22.2-3.2-1.1-6.4-2.3-9.6-3.4-4.5-1.6-10.8-2-9-8.1l4.8-32.9M143.4 111c2.7 8.4 6 16.5 9.8 24.4-3-.2-5.9-.3-8.9-.5M156.8 179.5h.8l23.8 12.1c6.3 3.2 9.7 10.1 8.4 17-.2.9-.3 1.7-.5 2.6l-4.4-1.4c.5-6.6-2.4-13.3-7.5-17.5M153.7 205.7c-2.7-2.2-6.2-2.9-9.6-3.4-7.6-1.2-15.5-3.1-22.8-5.6-4.3-1.5-8.5-3.4-12.3-5.9-2.4-1.5-4.6-3.3-6.6-5.4-1-1-1.9-1.9-2.5-3.2-.6-1.4-1.1-2.9-1-4.5 0-.4.4-1.1.6-1.4.3-.5.6-.9 1.1-1.2 1.2-.7 3.2-.4 4.5-.3 4.3.3 8.6.4 12.9 1 .2 0 1.8.4 1.9.2.3-.4-.3-.9-.8-1-1.1-.3-2.2-.6-3.3-1-1-.3-1.9-.8-2.9-1.3-.7-.3-1.3-.7-2.1-.8-1-.3-1.9.1-2.8-.2-1-.3-2-.5-3-.7-1.9-.4-3.8-.6-5.7-.5l-16.2-1.9c-.5-.1-1-.3-1.4-.4.3 3.2.7 6.5 1 9.7.6 5.9 1.5 12.4 6 16.4 3.4 3 8.7 4.2 12.5 6.9l40.2 10.4c4.7 1.7 9.8 2.4 14.7 3.2 1.7-3 .2-7-2.4-9.1zM189.4 211.7c1.2 7.6 2.7 15.1 4.4 22.5 1.8 8.2 4.1 16.6 9.1 23.3 1.2 1.6 3.1 3.5 3.3 5.6.2 1.4-.4 3.8-.7 5.1-1.4 0-2.9-.3-4.3-.5-.3 0-.6-.1-.8-.2-.3-.2-.4-.5-.5-.8-4.3-11.7-7.5-23.7-9.7-35.9-1.1-6.4-2-12.9-1-19.3"/>
        <path fill="#EEE" fill-rule="nonzero" d="M157 211.1c1.8 15.1 4.2 30.6 11.4 44 1.1 2.1 2.4 4.2 4.2 5.8.3.3.6.5.7.9.1.3.1.6.2.9 0 1.3-.2 2.6-.9 3.6s-2 1.7-3.3 1.5c-1.3-.2-2.2-1.6-1.9-2.8l-6.4-18.5c-1-10.6-5.2-21.2-3.8-31.7M150.4 214.4l-60.1-6.8c-7 1-17.9-4.3-20.3-11.2-3.3-9.3-1.8-20.2-1.7-29.9 1.2-.1 14.5.7 14.5 1.8-.4 8.8 1.8 17.8 6.1 25.5"/>
        <g fill="#EEE" fill-rule="nonzero">
            <path d="M44.5 120.7l1.8-1.8c-.7.6-1.3 1.2-1.8 1.8z"/>
            <path d="M163.5 277.4c-29.3-3.8-59.5.5-88.5-5.3-11.7-2.3-24.1-7.3-29.3-18-5.5-11.4-.8-24.8-.1-37.4.9-17-5.8-33.4-9.2-50.1-3.2-15.8-2.7-34.3 8.1-46l-5.3 5.3C30 138.4 28 154.6 27.8 170c-.1 9.9.5 19.9.1 29.8-.4 8.8-2.4 17.2-3.8 25.9-1.2 7.5-2.2 15.7-2 23.3.2 6.1-.6 12.7 1.4 18.5 4.9 14.6 20 15.1 32.9 15 5.6 0 11.2-.1 16.9-.1l39.9-.3c18.7-.1 37.3-.3 56-.4.2-2.7-3.1-3.9-5.7-4.3z"/>
        </g>
        <path fill="#EEE" fill-rule="nonzero" d="M133.5 44c-.2-.1-.4-.2-.5-.2l-26.1-.9c.1-1.1.9-2.6 1.9-3 1-.4 2.2-.1 3 .6M184.7 282.1c-4.2.3-8.3.7-12.5 1-.9.1-1.9.1-2.7-.3-1.5-.9-1.5-3.1-1.2-4.9.1-.8.3-1.7.4-2.5.9 2.9 4.2 4.3 7.2 5.1 2.9.7 5.8 1.2 8.8 1.6zM201.9 274.9c.6 2 2.4 3.6 4.4 4.4 2 .8 4.1 1.1 6.3 1.3l6.9.9c1 .1 2 .3 2.9.7-.9.4-2 .4-3.1.4-3.6 0-7.2.1-10.8.5-.8.1-1.6.2-2.4.1-1.3-.2-2.6-1-3.3-2.1-.8-1.1-1-2.5-.7-3.9"/>
        <path stroke="#514E4F" stroke-linecap="round" stroke-linejoin="round" d="M181.4 276.1h-.1 7.8M219 276.1h-.1 6.6M133.4 43.4c-.5 5.6-1 11.3-2.4 16.7-.9 3.3-2.1 7-4.3 9.8-2.9 3.9-7.2 3.2-11.5 2.3-3.3-.7-6.5-2.1-9.1-4.3-.9-.7-1.6-1.6-2.2-2.6M143.2 111.6l1.3 24.2M85.3 111.6l-5.7 40.7M80.3 150.6l35.5 12.8M182.9 174.7c5.3 3.8 10.9 8.1 16.2 11.9 3.2 2.3 6.9 5.1 9.1 8.4 3.3 4.9 4.1 11.7 4.6 17.4 1.8 18.4 1 36.2 1.4 54.8M81.9 169.7v.4c0 2.2 1.3 13.4 2.2 16.6 2.2 7.8 10.8 11.4 17.6 14.2 7.8 3.2 15.9 5.6 24.1 7.7 10.2 2.6 20.6 4.4 30.8 7.1M155.3 179.8c8.8 3.1 20.4 10.5 23.7 13.3 6.7 5.5 4.7 15.1 4.8 22.5.1 7.3-1.6 40.7-1.8 51.7"/>
        <path stroke="#514E4F" stroke-linecap="round" stroke-linejoin="round" d="M188.8 210.2c-.7 21.3 4 37.8 11 56.9l.1.2c.8 3 1.2 6 1.6 9.1.2 2-.3 5.9 2.5 6.4 4.7 0 9.3 0 14-.1h5c1.3 0 2.5.1 3.3-1.2.8-1.3.8-3.1.1-4.4-.7-1.5-12.5-9.7-12.5-9.7M182.2 267.4s11.1 8.1 11.8 9.7c.6 1.3.7 3.2-.1 4.4-.8 1.2-2 1.2-3.3 1.2h-5c-4.7 0-10 0-14.7.1-1-.2-1.7-1-2.1-1.9-.4-.9-.4-1.9-.4-2.9-.1-2.4-.4-9.8-.4-9.8-7.2-19.5-12.1-36.2-11.4-57.9M188.7 211.8h-.2l-4.2-1.1"/>
        <path stroke="#514E4F" stroke-linecap="round" stroke-linejoin="round" d="M214.1 266.6c-.2-1.5-.4-3-1.1-4.2-1.3-2.1-3.8-2.6-5.7-1-1.8 1.5-1.4 4.4-1.4 6.5h-5M168.9 267.9h3.7c-.1-2.1-.4-5 1.4-6.5 1.5-1.3 4.2-1.3 5.7 0 1.7 1.4 2.2 3.8 2.5 5.9M179.1 272.5h-.1 9.8M211.5 272.5h-.1 9.1"/>
        <g transform="translate(209 197)">
            <mask id="b" fill="#fff">
                <use xlink:href="#a"/>
            </mask>
            <path fill="#FFF" d="M21.942 86.229c1.695.005 2.825.008 4.513.008 11.095 0 19.004-3.288 21.258-14.007 1.214-5.781.631-11.773-.039-17.643-1.908-16.713-8.496-28.558-22.5-38.337" mask="url(#b)"/>
        </g>
        <path stroke="#514E4F" stroke-linecap="round" stroke-linejoin="round" d="M94.5 79.9l4.4-22.5M121 73.4c.1 1 .2 5.7.6 5.9 1 .5 6.2 1.6 7.4 1.9 2.3.6 4.6 1.4 6.8 2.2 2 .7 3.9 1.6 5.8 2.5 10.9 5.3 17.2 40.3 20.3 50.2M231.2 282.7h4.5c11.1 0 19-3.3 21.3-14 1.2-5.8.6-11.8 0-17.6-1.9-16.7-8.5-28.6-22.5-38.3-7.7-5.4-17-11.6-25.2-16.2M162.2 282.5h.7M67.1 109.6c-11.7 2.7-22.4 8.7-29.2 18.5-4.2 6.2-6.6 13.4-8 20.7-3.3 17.6-1 35.7-2 53.6-.5 9.4-2 18.8-3.2 28.2-.9 6.8-1.3 13.7-1.6 20.5-.4 8.7-.9 17.1 5.8 23.6 8.7 8.4 19.5 7.5 30.6 7.5 10.4 0 20.8 0 31.2.1 23.9.1 47.7.1 71.6.2"/>
        <path stroke="#514E4F" stroke-linecap="round" stroke-linejoin="round" d="M94.8 79.8c4 6.1 10 10.2 17 11.1 2.6.3 5.5.1 7.5-1.8 2.6-2.5 2.3-6.5 2.3-9.9"/>
        <path fill="#0223C9" fill-rule="nonzero" stroke="#0223C9" stroke-linecap="round" stroke-linejoin="round" d="M120.4 174.7l-9.6-3.3c1.6 0 3.2.4 4.8.3 1.6-.1 3.2.2 4.8 0h.3c.1.1.1.2.1.3 0 1.1-.4 1.8-.4 2.7z"/>
        <path stroke="#514E4F" stroke-linecap="round" stroke-linejoin="round" d="M113 164.1l9.2-2"/>
        <path fill="#9CA9EA" fill-rule="nonzero" d="M146.7 183.8l-.2-1.2c.1.4.2.8.2 1.2zM190 227.7c.3 0 0-.2-.2-.2-.3 0 .1.2.2.2z"/>
        <path fill="#3F58D6" fill-rule="nonzero" d="M149.8 28.6c-1-2.8-3.3-5.1-6-6.3-1.1-.5-2.3-.8-3.5-1-4-.5-8.7.8-12.9 3.6-.5.3-1 .7-1.5 1-1.4 1-2.8 1.9-4.3 2.8l-13-1.7c-2.9-.4-5.5 1.6-6.1 4.4L98 60.7c-.1.4.1.7.5.8h.1c.3 0 .6-.1.8-.4l8.4-21.5c3.9.5 8.1 1.1 12.1 1.7 5.4.8 10.9 1.6 16.2 2.2 5.6.6 11.1-2.5 13.6-7.9 1-2.1 1-4.7.1-7z"/>
        <path fill="#304BD3" fill-rule="nonzero" d="M107.9 39.8c1-.6 3.8.6 5 .8.7.1 2.5 0 3.2-.3-2.4-4.1-5.6-7.9-7.7-12.1-.9-1.7-2.2-1.4-3.6-.3-1 .8-2 2.2-2.3 3.5 0 .2-4.4 29.4-4.4 29.4-.1.4.1.7.5.8h.1c.3 0 .6-.1.8-.4 1.5-4 3.1-7.9 4.6-11.9 1-2.5 2-5 2.9-7.5.2-.5.4-1.6.8-1.9 0-.1 0-.1.1-.1z"/>
        <path stroke="#0223C9" stroke-linecap="round" stroke-linejoin="round" d="M108.5 27c-2.9-.4-5.5 1.6-6.1 4.4L98 60.7c-.1.4.1.7.5.8h.1c.3 0 .6-.1.8-.4l8.4-21.5c2.8.4 5.6.8 8.5 1.2"/>
        <path stroke="#0223C9" stroke-linecap="round" stroke-linejoin="round" d="M116.3 40.9c1.2.2 2.4.4 3.6.5 5.4.8 10.9 1.6 16.2 2.2 5.6.6 11.1-2.5 13.6-7.9 1-2.2 1.1-4.7.2-7.1-1-2.8-3.3-5.1-6-6.3-1.1-.5-2.3-.8-3.5-1-4-.5-8.7.8-12.9 3.6-.5.3-1 .7-1.5 1-1.4 1-2.8 1.9-4.3 2.8l-13-1.7"/>
        <path fill="#FFF" fill-rule="nonzero" stroke="#514E4F" stroke-linecap="round" stroke-linejoin="round" d="M104.7 50.1c-1.6-2.4-5.1-3.4-7.2-.9-1.5 1.8-1.2 4.8.1 6.6 1.1 1.4 3.2 2.2 4.8 1.4"/>
        <path fill="#5067DA" fill-rule="nonzero" d="M145.5 33.4c-.2 1.7-1.1 3-2.9 3.8-1.6.7-3.4.9-5.1 1.1-4 .4-8.1-.2-12.2-.5-1.1.1-2.3-.3-3.1-1.1 3.6-.6 7.1-1.7 10.4-3.2 1.2-.5 2.3-1.1 3.3-2 .8-.8 1.5-1.9 1.6-3 0-.4-.1-3.5 0-3.5 4.1-.7 7.2 2.9 7.9 6.5.1.7.1 1.3.1 1.9z"/>
        <path stroke="#0223C9" stroke-linecap="round" stroke-linejoin="round" d="M142.2 26.7c1.1 1 1.8 2.5 2.2 3.8.2.7.3 1.5.2 2.3M131.7 38.2l-6-.6M143.7 36.5c-1.4 1.6-3.6 2.5-5.7 2.3l-6.3-.6M154 156.1c.2-2 2-3.7 4-3.7s3.5 1.7 3.3 3.7c-.2 2-2 3.7-4 3.7-2.1 0-3.6-1.7-3.3-3.7z"/>
        <path fill="#304BD3" fill-rule="nonzero" d="M169.7 139.5s.1 0 0 0c.1-.3.6-.2.7-.2h15.8c-.1 0 0 .4 0 .4-.2 0-1.4 5.9-1.5 6.4-.4 1.6-.8 3.3-1.2 4.9-.2.9-.3 2.5-.9 3.3-.2-.2-.3-.5-.2-.8 0-3.1.4-6.4.1-9.6-.2-2.3-2.5-3.1-4.5-3.2-1.9-.1-3.2-.3-5.1-.5-.5 0-3.2-.1-3.2-.7z"/>
        <path stroke="#514E4F" stroke-linecap="round" stroke-linejoin="round" d="M94.5 79.9c-4.4 1.6-10.6 4-13.6 5.7-6 3.5-8.6 9-10.9 15.3-5.3 14.2-8.7 54.6-8 58.5.9 4.8 4.4 5.6 8.5 7 6.3 2.2 44.3 5.4 44.3 5.4M114.6 171.8h6"/>
        <path stroke="#0223C9" stroke-linecap="round" stroke-linejoin="round" d="M182.9 174.7h-62.5l6.7-38.4h63.8z"/>
    </g>
</svg>
